HIERARCHY
ROOT Hips
{
  OFFSET -35.4901 99.2528 17.4586
  CHANNELS 6 Xposition Yposition Zposition Zrotation Xrotation Yrotation
  JOINT LeftUpLeg
  {
    OFFSET 8.64259 1.95398 -2.38835
    CHANNELS 3 Zrotation Xrotation Yrotation
    JOINT LeftLeg
    {
      OFFSET 43.7702 0 0
      CHANNELS 3 Zrotation Xrotation Yrotation
      JOINT LeftFoot
      {
        OFFSET 40.6238 0 0
        CHANNELS 3 Zrotation Xrotation Yrotation
        JOINT LeftToeBase
        {
          OFFSET 12.7242 0 0
          CHANNELS 3 Zrotation Xrotation Yrotation
          End Site
          {
            OFFSET 0 0 0
          }
        }
      }
    }
  }
  JOINT RightUpLeg
  {
    OFFSET -8.2249 1.95398 -2.59336
    CHANNELS 3 Zrotation Xrotation Yrotation
    JOINT RightLeg
    {
      OFFSET 43.5653 0 0
      CHANNELS 3 Zrotation Xrotation Yrotation
      JOINT RightFoot
      {
        OFFSET 40.6238 0 0
        CHANNELS 3 Zrotation Xrotation Yrotation
        JOINT RightToeBase
        {
          OFFSET 12.7242 0 0
          CHANNELS 3 Zrotation Xrotation Yrotation
          End Site
          {
            OFFSET 0 0 0
          }
        }
      }
    }
  }
  JOINT Spine
  {
    OFFSET 0.165834 0.87714 6.61349
    CHANNELS 3 Zrotation Xrotation Yrotation
    JOINT Spine1
    {
      OFFSET 7.38963 1.71661e-005 0
      CHANNELS 3 Zrotation Xrotation Yrotation
      JOINT Spine2
      {
        OFFSET 11.9445 1.14441e-005 0
        CHANNELS 3 Zrotation Xrotation Yrotation
        JOINT Spine3
        {
          OFFSET 14.7254 4.19617e-005 0
          CHANNELS 3 Zrotation Xrotation Yrotation
          JOINT Spine4
          {
            OFFSET 10.9679 0 0
            CHANNELS 3 Zrotation Xrotation Yrotation
            JOINT RightShoulder
            {
              OFFSET 2.46616 -1.6653 3.69651
              CHANNELS 3 Zrotation Xrotation Yrotation
              JOINT RightArm
              {
                OFFSET 13.0012 0 0
                CHANNELS 3 Zrotation Xrotation Yrotation
                JOINT RightForeArm
                {
                  OFFSET 28.7848 1.52588e-005 0
                  CHANNELS 3 Zrotation Xrotation Yrotation
                  JOINT RightHand
                  {
                    OFFSET 26.5688 1.52588e-005 0
                    CHANNELS 3 Zrotation Xrotation Yrotation
                    End Site
                    {
                      OFFSET 0 0 0
                    }
                  }
                }
              }
            }
            JOINT LeftShoulder
            {
              OFFSET 2.38034 -1.29275 -3.7523
              CHANNELS 3 Zrotation Xrotation Yrotation
              JOINT LeftArm
              {
                OFFSET 16.3182 6.10351e-005 0
                CHANNELS 3 Zrotation Xrotation Yrotation
                JOINT LeftForeArm
                {
                  OFFSET 27.0901 0 0
                  CHANNELS 3 Zrotation Xrotation Yrotation
                  JOINT LeftHand
                  {
                    OFFSET 24.5451 1.52588e-005 0
                    CHANNELS 3 Zrotation Xrotation Yrotation
                    End Site
                    {
                      OFFSET 0 0 0
                    }
                  }
                }
              }
            }
            JOINT Neck
            {
              OFFSET 5.0226 -0.0266342 0
              CHANNELS 3 Zrotation Xrotation Yrotation
              JOINT Head
              {
                OFFSET 6.69364 2.86102e-005 0
                CHANNELS 3 Zrotation Xrotation Yrotation
                End Site
                {
                  OFFSET 0 0 0
                }
              }
            }
          }
        }
      }
    }
  }
}
MOTION
Frames:	10
Frame Time:	0.0416667
-215.305 97.9305 -182.461 -99.4266 42.66 -81.7084 -175.073 6.75155 91.6953 -24.1912 4.44491 -2.04925 69.1206 4.59862 1.5448 22.7161 2.54004 -3.29729 166.67 3.72485 84.3305 -20.097 -6.98925 1.4512 67.4341 -4.0386 -1.87328 18.7633 -1.29928 3.9446 0.300276 8.65376 -89.8803 9.56587 0.652689 0.18733 -2.10492 0.660299 0.158413 -24.641 0.566205 0.374834 -4.62835 0.566217 0.374829 89.05 -30.0196 -108.628 41.4583 -6.58852 -1.52619 1.56609 -14.2729 -21.1665 -21.8275 3.04489 -24.1843 -82.4498 -51.9512 90.2588 -14.3883 14.5283 -11.4525 6.84163 14.0989 -19.6636 -3.45012 -0.0335073 -10.4271 -28.936 3.26554 -0.251172 -9.51323 3.24877 1.3487 
-215.005 97.8654 -182.578 -99.8874 43.5375 -82.0496 -175.493 6.55484 90.9597 -24.3008 3.53803 -1.94143 69.0549 4.56893 1.85192 22.1043 1.44885 -1.58751 167.31 3.67666 84.151 -20.347 -7.04085 0.65737 68.4112 -4.41574 -0.982909 18.8582 -0.445401 2.1348 0.425536 8.57007 -89.869 9.73364 0.907607 0.187559 -1.937 0.914974 0.14742 -24.4742 0.809256 0.451671 -4.46157 0.809267 0.451668 90.1412 -29.5882 -106.636 42.7864 -7.25141 -1.60013 -3.09728 -30.4193 -22.1999 -23.1125 0.140458 -10.1348 -82.8844 -53.645 89.7653 -13.1589 14.0343 -13.2978 6.12126 14.6716 -17.4932 -0.912652 -0.140716 -8.04312 -28.3623 2.85137 0.130827 -10.8586 2.83247 1.58243 
-214.304 97.8491 -183.506 -101.363 42.5388 -80.7547 -174.507 5.86846 92.2946 -25.2312 5.52067 -1.91215 69.3138 4.77818 1.70303 22.9867 1.34915 -1.54148 167.744 2.03031 85.0708 -20.5098 -5.52434 0.591269 69.2187 -4.67307 -0.439814 18.3578 -0.45329 2.1911 0.315377 8.63246 -90.0159 9.60901 0.621624 -0.0791492 -2.0618 0.617562 -0.106441 -24.5981 0.616678 0.111341 -4.58545 0.616682 0.111341 90.2508 -29.7176 -106.368 42.0609 -7.28103 -1.44735 -3.14664 -30.2569 -22.9321 -22.9718 0.29739 -10.9697 -82.728 -54.3871 90.055 -13.0917 14.8096 -14.4175 6.06725 15.0556 -17.7534 -1.34549 -0.126436 -8.27019 -28.1968 2.80984 1.53619 -10.4413 2.957 1.43598 
-213.614 97.823 -184.132 -101.72 42.8175 -80.7507 -174.26 5.71961 92.7098 -25.2211 5.37532 -1.88974 69.0395 4.72339 1.55949 23.8818 1.74358 -2.25669 167.871 2.12007 85.2878 -21.1957 -5.69088 0.626487 69.9663 -4.88862 -0.443834 17.0992 -0.500114 2.37494 0.26381 8.58671 -90.0472 9.70081 0.504584 -0.133088 -1.97005 0.498261 -0.155183 -24.506 0.521261 0.0247226 -4.49334 0.521259 0.0247126 89.1731 -29.855 -108.454 40.5316 -7.41287 -0.0412637 -1.9701 -25.9565 -23.9351 -24.284 0.4402 -10.6316 -83.0837 -55.2356 89.6187 -14.515 13.3195 -13.3096 9.13867 18.4541 -20.4885 -2.72267 -0.0762654 -8.61783 -27.7327 3.25169 2.43689 -11.3502 3.50845 1.15364 
-213.005 97.9722 -184.71 -102.013 43.6731 -80.9573 -174.367 4.85792 92.6878 -23.9334 4.42775 -1.89675 68.7894 4.57666 0.786968 23.1921 0.661012 -0.522748 168.086 1.80262 85.4106 -20.5131 -6.39271 0.416034 69.9899 -4.95697 -0.707116 16.4766 -0.481822 2.38231 0.279187 8.53085 -90.0357 9.8125 0.54038 -0.113903 -1.85834 0.534868 -0.137586 -24.3944 0.549641 0.053774 -4.38175 0.549637 0.0537742 90.513 -28.6132 -106.262 43.6454 -6.74652 -1.73698 -2.3163 -27.7065 -21.8578 -23.8985 0.333617 -10.4549 -83.3132 -55.5409 89.3181 -15.4713 12.476 -12.5087 10.2614 19.3864 -21.3252 -3.84131 -0.0287553 -9.18581 -27.3816 3.2347 1.87721 -10.6562 3.28065 3.22529 
-212.417 98.0729 -185.115 -101.921 44.2616 -81.0965 -174.893 4.19105 92.7085 -22.3052 3.3455 -1.42868 68.2943 4.31554 0.523621 24.0221 0.606604 -0.521054 168.435 1.731 85.8489 -20.0169 -6.37481 0.325886 70.1092 -5.05846 -0.603138 16.2115 -0.456033 2.34856 0.229135 8.4556 -89.9972 9.96279 0.457972 -0.0319533 -1.70807 0.456141 -0.0520853 -24.2439 0.446399 0.107167 -4.23121 0.446402 0.107162 89.2898 -31.1735 -107.693 40.6915 -6.76361 -1.00353 -1.45703 -26.8436 -21.3481 -23.2881 0.387045 -10.7508 -83.5444 -54.4953 88.8901 -17.0771 12.5882 -11.6327 9.51875 19.2441 -19.8381 -3.11639 -0.0573707 -9.16091 -25.8651 4.01434 1.48282 -12.3497 4.00764 2.76663 
-211.95 98.1566 -185.618 -101.621 44.503 -81.6247 -174.975 3.94952 92.7832 -21.3537 3.16977 -1.46972 67.7192 3.97427 0.276828 24.4545 0.313371 -0.109136 168.541 1.87895 85.9694 -19.878 -6.37989 0.308646 70.2338 -5.17974 -0.498339 16.1697 -0.342519 2.12515 0.149061 8.38262 -90.02 10.1088 0.288061 -0.0635623 -1.56216 0.284975 -0.0761787 -24.0976 0.293847 0.0259525 -4.08491 0.293828 0.0259458 91.0055 -30.7331 -104.513 41.0934 -8.8568 -2.90653 0.281981 -27.1748 -18.7468 -24.0346 0.318363 -10.206 -83.5449 -55.0333 88.9408 -17.4734 12.5957 -11.5038 8.52616 19.8413 -17.7155 -3.28374 -0.0520046 -8.70698 -24.7809 4.17245 1.73559 -12.2608 4.10539 3.52385 
-211.648 98.1638 -186.12 -101.565 44.6152 -81.7553 -174.688 3.75375 93.177 -20.9271 3.6991 -1.64242 67.5482 3.9217 0.546289 24.7919 0.289248 -0.102348 168.569 1.80292 86.1867 -19.9508 -6.32047 0.417279 70.6074 -5.32777 -0.514789 15.4531 -0.50067 2.48818 0.0928761 8.33934 -90.0348 10.1952 0.169247 -0.0833675 -1.4757 0.165415 -0.0907445 -24.0109 0.186479 -0.028654 -3.99831 0.186472 -0.0286481 89.8757 -31.9095 -106.285 41.4588 -6.66147 -2.42893 -0.418246 -28.7641 -18.0685 -23.6242 0.173473 -9.76955 -83.3647 -54.9884 89.195 -17.6097 12.7157 -11.6007 8.45274 20.9563 -17.1103 -4.2917 -0.0142376 -8.94485 -24.805 4.75334 1.92172 -12.5896 4.65977 4.06783 
-211.54 98.2435 -186.685 -101.26 44.9075 -81.9001 -174.812 3.40454 93.3664 -20.1353 3.41056 -1.37186 67.3372 3.83101 0.423158 25.0868 0.125086 0.129059 168.67 1.5282 86.5236 -19.3679 -6.33026 0.507484 70.678 -5.36116 -0.407451 15.0204 -0.430667 2.38055 0.171808 8.22779 -89.9939 10.4184 0.345106 -0.0181279 -1.25254 0.343985 -0.0333181 -23.788 0.334584 0.0864293 -3.77541 0.3346 0.0864285 90.3009 -30.5516 -105.957 43.5325 -7.26097 -1.38396 -0.490598 -28.1379 -19.0372 -23.4301 0.164454 -9.65465 -83.9826 -52.9611 88.0999 -19.9957 12.1454 -10.6667 8.83851 20.4832 -17.1697 -2.6869 -0.0790232 -8.5599 -23.9888 6.23822 -0.415397 -14.5844 5.60137 7.11006 
-211.681 98.2859 -187.197 -101.312 45.2989 -82.0771 -174.811 2.64239 93.31 -19.3824 2.94846 -1.41866 67.2731 3.81586 0.355052 25.1336 -0.0324845 0.373362 168.696 1.17409 86.4208 -19.0893 -6.74136 0.386474 70.8192 -5.42357 -0.545672 14.9677 -0.527134 2.57154 0.163706 8.15262 -90.0627 10.5689 0.297239 -0.151041 -1.10201 0.290314 -0.163984 -23.6374 0.328891 -0.0547219 -3.62478 0.328917 -0.0547301 90.2065 -31.2009 -105.905 42.8723 -8.03598 -1.58382 0.394273 -28.0242 -17.9548 -23.7236 0.186622 -9.68859 -83.4829 -55.0314 89.0301 -18.2414 13.1499 -10.4518 8.86281 20.6566 -18.2321 -4.42953 -0.00699965 -9.08489 -23.8616 7.85017 2.49239 -13.9145 7.43749 7.68954 
